<svg id="Layer_1" enable-background="new 0 0 512 512" height="30" viewBox="0 0 512 512" width="512" xmlns="http://www.w3.org/2000/svg"><g><g><path d="m483.19 284.9c0 104.55-8.63 210.47-8.72 211.53-.3 3.66-3.2 6.56-6.86 6.86-.36.03-12.59 1.03-32.64 2.34-39.55 2.57-109.56 6.37-178.97 6.37-42.57 0-89.96-1.38-140.86-4.11-1.38-.07-2.72-.53-3.86-1.32-42.4-29.32-68.04-63.87-77.1-77.36-.76-1.12-1.19-2.43-1.26-3.78-2.73-50.95-4.11-98.23-4.11-140.53 0-38.25 1.16-76.68 2.63-110.09l224.56-58.5 185.04 48.22 39.52 10.3c1.47 33.41 2.63 71.83 2.63 110.07z" fill="#dcf8ff"/><path d="m483.19 284.9c0 104.55-8.63 210.47-8.72 211.53-.3 3.66-3.2 6.56-6.86 6.86-.36.03-12.59 1.03-32.64 2.34 11.64-129.21 9.78-256.2 6.07-341.1l39.52 10.3c1.47 33.41 2.63 71.83 2.63 110.07z" fill="#d2e1f9"/><path d="m480.56 174.83c-4.67-.35-18.75-1.36-39.2-2.57-43.02-2.56-114.25-6-185.48-6-104.53 0-209.07 7.41-224.44 8.55 2.55-57.93 6.04-100.78 6.1-101.45.3-3.65 3.2-6.55 6.86-6.85 1.06-.09 107.01-8.72 211.6-8.72 69.27 0 139.15 3.79 178.74 6.37 20.19 1.31 32.51 2.32 32.87 2.35 3.66.3 6.56 3.2 6.86 6.85.06.67 3.55 43.53 6.09 101.47z" fill="#ff5f85"/><g fill="#58768c"><path d="m168.53 59.51c-.25 2.88-.61 5.85-1.08 8.93-.62 4.1-4.45 6.92-8.54 6.3s-6.91-4.45-6.29-8.54c.32-2.09.58-4.13.79-6.1 1.86-17.47-.42-30.43-6.65-37.69-4.24-4.92-10.48-7.41-18.56-7.41-5.76 0-10.4 1.86-13.77 5.54-6.14 6.69-8.56 19.72-7.02 37.69 1.8 20.88 7.93 34.99 18.22 41.94 11.94 8.06 26.28 3.81 26.43 3.77 3.94-1.21 8.14.99 9.37 4.93s-.93 8.12-4.87 9.38c-.43.14-6.01 1.85-13.77 1.85-7.33 0-16.6-1.53-25.36-7.37-14.34-9.57-22.74-27.48-24.96-53.21-1.94-22.59 1.73-39.11 10.91-49.12 6.24-6.8 14.83-10.4 24.82-10.4 15.76 0 24.97 6.87 29.93 12.63 8.81 10.24 12.3 25.98 10.4 46.88z"/><path d="m419.39 63.19c-.27 2.64-.62 5.35-1.05 8.14-.64 4.09-4.47 6.9-8.56 6.26-4.1-.63-6.9-4.46-6.27-8.55.36-2.3.65-4.54.88-6.71 1.97-18.29-.42-31.9-7.02-39.6-5.76-6.73-13.85-7.73-18.17-7.73-5.76 0-10.4 1.86-13.77 5.54-6.14 6.69-8.56 19.72-7.02 37.69 1.8 20.88 7.93 34.99 18.22 41.94 11.94 8.06 26.28 3.81 26.43 3.77 3.94-1.21 8.14.99 9.37 4.93s-.93 8.12-4.87 9.38c-.43.14-6.01 1.85-13.77 1.85-7.33 0-16.6-1.53-25.36-7.37-14.34-9.57-22.74-27.48-24.96-53.21-1.94-22.59 1.73-39.11 10.91-49.12 6.24-6.8 14.83-10.4 24.82-10.4 6.89 0 19.89 1.68 29.56 12.96 9.36 10.93 12.92 27.8 10.63 50.23z"/><path d="m294.14 58.14c-.2 2.71-.51 5.52-.92 8.41-.57 4.1-4.36 6.96-8.46 6.39s-6.96-4.36-6.39-8.46c.31-2.25.56-4.43.75-6.55 1.45-16.45-.92-28.68-6.94-35.61-4.23-4.86-10.45-7.32-18.48-7.32-5.76 0-10.4 1.86-13.77 5.54-6.14 6.69-8.56 19.72-7.02 37.69 1.8 20.88 7.93 34.99 18.22 41.94 11.94 8.06 26.28 3.81 26.43 3.77 3.94-1.21 8.14.99 9.37 4.93s-.93 8.12-4.87 9.38c-.43.14-6.01 1.85-13.77 1.85-7.33 0-16.6-1.53-25.36-7.37-14.34-9.57-22.74-27.48-24.96-53.21-1.94-22.59 1.73-39.11 10.91-49.12 6.24-6.8 14.83-10.4 24.82-10.4 15.65 0 24.84 6.79 29.79 12.48 8.72 10.01 12.29 25.35 10.65 45.66z"/></g><g fill="#ff5f85"><path d="m419.39 63.19c-.27 2.64-.62 5.35-1.05 8.14-.64 4.09-4.47 6.9-8.56 6.26-4.1-.63-6.9-4.46-6.27-8.55.36-2.3.65-4.54.88-6.71 5.26.29 10.27.58 15 .86z"/><path d="m294.14 58.14c-.2 2.71-.51 5.52-.92 8.41-.57 4.1-4.36 6.96-8.46 6.39s-6.96-4.36-6.39-8.46c.31-2.25.56-4.43.75-6.55 5.03.05 10.04.13 15.02.21z"/><path d="m168.53 59.51c-.25 2.88-.61 5.85-1.08 8.93-.62 4.1-4.45 6.92-8.54 6.3s-6.91-4.45-6.29-8.54c.32-2.09.58-4.13.79-6.1 4.95-.21 9.99-.41 15.12-.59z"/></g><path d="m115.14 507.89c-1.38-.07-2.72-.53-3.86-1.32-42.4-29.32-68.04-63.87-77.1-77.36-.76-1.12-1.19-2.43-1.26-3.78 0 0 38.77-3.21 74.46-2.8 4.35.05 7.88 3.52 8.03 7.87.48 14.12 1.22 45.59-.27 77.39z" fill="#d2e1f9"/><path d="m480.56 174.83c-4.67-.35-18.75-1.36-39.2-2.57-2.36-57.64-5.68-97.49-6.62-108.1 20.19 1.31 32.51 2.32 32.87 2.35 3.66.3 6.56 3.2 6.86 6.85.06.67 3.55 43.53 6.09 101.47z" fill="#b2527e"/></g><g><path d="m338.301 234.571c-.349-4.127-3.981-7.189-8.105-6.84-4.128.349-7.19 3.978-6.842 8.105.075.889 7.435 90.04-.003 184.435-.325 4.129 2.758 7.74 6.888 8.066.2.016.399.023.597.023 3.875 0 7.159-2.982 7.469-6.912 7.537-95.659.073-185.976-.004-186.877z" fill="#77e0ab"/><path d="m290.565 280.714c0-13.615-5.819-27.011-15.965-36.753-7.724-7.417-21.508-16.257-43.313-16.257-21.894 0-38.39 5.786-49.031 17.196-12.967 13.903-11.938 30.927-11.888 31.645.287 4.132 3.883 7.284 8.006 6.988 4.132-.288 7.25-3.843 6.961-7.975-.025-.468-.519-11.553 8.048-20.593 7.707-8.135 20.461-12.26 37.904-12.26 28.76 0 44.278 19.583 44.278 38.01 0 10.252-4.675 19.724-13.163 26.669-10.512 8.603-26.445 13.149-46.077 13.149-4.143 0-7.5 3.358-7.5 7.5s3.357 7.5 7.5 7.5c19.632 0 35.565 4.547 46.077 13.149 8.488 6.945 13.163 16.417 13.163 26.669 0 18.426-15.519 38.01-44.278 38.01-17.443 0-30.197-4.125-37.904-12.26-8.525-8.997-8.077-20.019-8.048-20.585.26-4.111-2.848-7.667-6.963-7.955-4.12-.278-7.717 2.827-8.004 6.959-.051.718-1.079 17.741 11.888 31.645 10.642 11.41 27.138 17.196 49.031 17.196 21.806 0 35.59-8.84 43.313-16.257 10.146-9.742 15.965-23.138 15.965-36.753 0-14.835-6.628-28.43-18.663-38.278-4.374-3.579-9.403-6.6-15.014-9.041 5.61-2.44 10.64-5.461 15.014-9.041 12.035-9.848 18.663-23.442 18.663-38.277z" fill="#ff5f85"/></g></g></svg>